<?xml version="1.0" encoding="utf-8"?>
<!-- Generator: Adobe Illustrator 26.2.1, SVG Export Plug-In . SVG Version: 6.00 Build 0)  -->
<svg version="1.1" id="Layer_1" xmlns="http://www.w3.org/2000/svg" xmlns:xlink="http://www.w3.org/1999/xlink" x="0px" y="0px"
	 viewBox="0 0 443.4 488.64" style="enable-background:new 0 0 443.4 488.64;" xml:space="preserve">
<style type="text/css">
	.st0{fill:#FFFFFF;}
	.st1{fill:url(#SVGID_1_);}
	.st2{fill:url(#SVGID_00000017479879765770591800000009838044424693383588_);}
	.st3{fill:url(#SVGID_00000176045654180249933510000006113150916705566882_);}
</style>
<g>
	<path class="st0" d="M184.75,423.76v61.21c0,2.04,1.65,3.7,3.7,3.7h22.17c2.04,0,3.7-1.65,3.7-3.7V377.81c0-2.04-1.65-3.7-3.7-3.7
		h-11.6c0.6,2.96,0.98,5.98,1.09,9.05C200.65,398.37,195.19,412.76,184.75,423.76z"/>
	<path class="st0" d="M275.44,459.1h-5.89c-3.98,0-7.21-3.23-7.21-7.21V340.86c0-2.04-1.65-3.7-3.7-3.7h-22.17
		c-2.04,0-3.7,1.65-3.7,3.7v118.2c0,16.35,13.25,29.6,29.6,29.6h36.32C287.8,481.95,279.45,471.5,275.44,459.1z"/>
	<path class="st0" d="M203.58,322.63c-12.07-2.28-23.66,5.77-25.73,17.88c-0.02,0.11-0.03,0.21-0.05,0.32
		c1.27,0.96,2.5,1.98,3.7,3.05c0.01-0.84,0.07-1.68,0.2-2.52c1.62-10.1,11.3-16.82,21.33-14.82c9.45,1.88,15.8,11.02,14.27,20.53
		c-1.62,10.1-11.3,16.82-21.33,14.82c-0.39-0.08-0.76-0.19-1.14-0.29c0.68,1.44,1.3,2.9,1.85,4.39c11.61,1.51,22.47-6.4,24.47-18.08
		C223.17,336.17,215.31,324.85,203.58,322.63z"/>
	<radialGradient id="SVGID_1_" cx="199.5106" cy="344.2301" r="16.0127" gradientUnits="userSpaceOnUse">
		<stop  offset="0" style="stop-color:#56C6DD"/>
		<stop  offset="1" style="stop-color:#029BD6"/>
	</radialGradient>
	<path class="st1" d="M215.32,346.76c1.35-8.4-4.21-16.47-12.53-18.21l0.9,4.37l-4.17-0.75l2.36-3.77
		c-8.64-1.3-16.79,4.57-18.19,13.28c-0.23,1.41-0.24,2.8-0.1,4.16c4.02,3.96,7.36,8.42,9.96,13.24c0.9,0.36,1.84,0.65,2.82,0.85
		C205.28,361.7,213.88,355.73,215.32,346.76z"/>
	<path class="st0" d="M189.46,369.51c-1.04-2.92-2.35-5.71-3.92-8.33c-0.01-0.02-0.02-0.03-0.03-0.05c-0.77-1.29-1.61-2.55-2.5-3.76
		c-0.45-0.61-0.92-1.22-1.39-1.81c-0.71-0.88-1.46-1.72-2.22-2.54c-0.27-0.29-0.53-0.59-0.81-0.87c-0.53-0.54-1.08-1.08-1.63-1.6
		c-1.67-1.56-3.45-3-5.33-4.32c-1.25-0.88-2.55-1.7-3.88-2.47c-1.33-0.76-2.71-1.47-4.11-2.11c-6.33-2.88-13.35-4.48-20.67-4.48h0
		H84.99c-1.79,0-3.28,1.27-3.62,2.95c-0.05,0.24-0.08,0.49-0.08,0.74v91.49v0c0,3.01-0.5,5.94-1.42,8.69
		c-0.13,0.39-0.27,0.78-0.42,1.17c-0.59,1.54-1.32,3.01-2.18,4.41c-1.06,1.74-2.32,3.35-3.73,4.8c-0.57,0.58-1.16,1.13-1.77,1.66
		c-4.01,3.41-9.04,5.61-14.62,5.97c-0.47,0.03-0.94,0.05-1.4,0.05c-0.06,0-0.12,0-0.18,0c-0.05,0-0.09,0-0.14,0
		c-0.2,0-0.39-0.01-0.58-0.01c-0.21,0-0.41-0.01-0.61-0.02c-0.25-0.01-0.5-0.03-0.75-0.05c-0.2-0.01-0.4-0.03-0.59-0.05
		c-0.25-0.02-0.51-0.06-0.76-0.09c-0.19-0.02-0.38-0.04-0.56-0.07c-0.26-0.04-0.53-0.09-0.79-0.14c-0.17-0.03-0.34-0.06-0.51-0.09
		c-0.29-0.06-0.58-0.13-0.87-0.2c-0.13-0.03-0.27-0.06-0.4-0.09c-0.42-0.11-0.84-0.23-1.25-0.35c-0.02-0.01-0.04-0.01-0.06-0.02
		c-0.39-0.12-0.78-0.26-1.17-0.4c-0.13-0.05-0.25-0.1-0.37-0.15c-0.28-0.11-0.55-0.21-0.83-0.33c-0.15-0.06-0.3-0.13-0.44-0.2
		c-0.24-0.11-0.49-0.22-0.72-0.33c-0.16-0.08-0.31-0.16-0.46-0.24c-0.22-0.11-0.45-0.23-0.67-0.35c-0.16-0.09-0.31-0.18-0.47-0.27
		c-0.21-0.12-0.42-0.24-0.63-0.37c-0.16-0.1-0.31-0.2-0.47-0.3c-0.2-0.13-0.4-0.26-0.6-0.39c-0.15-0.11-0.3-0.22-0.46-0.32
		c-0.19-0.14-0.39-0.28-0.57-0.42c-0.15-0.11-0.3-0.23-0.44-0.35c-0.18-0.15-0.37-0.29-0.55-0.44c-0.15-0.12-0.29-0.25-0.43-0.37
		c-0.18-0.15-0.35-0.31-0.52-0.47c-0.14-0.13-0.28-0.26-0.42-0.4c-0.17-0.16-0.33-0.32-0.49-0.49c-0.13-0.14-0.27-0.28-0.4-0.42
		c-0.16-0.17-0.31-0.34-0.47-0.51c-0.13-0.14-0.25-0.29-0.38-0.44c-0.15-0.18-0.3-0.35-0.44-0.53c-0.12-0.15-0.24-0.3-0.36-0.46
		c-0.14-0.18-0.28-0.37-0.41-0.55c-0.11-0.16-0.23-0.32-0.34-0.47c-0.13-0.19-0.26-0.38-0.38-0.57c-0.11-0.16-0.21-0.33-0.32-0.49
		c-0.12-0.2-0.24-0.39-0.36-0.59c-0.1-0.17-0.2-0.34-0.29-0.51c-0.11-0.2-0.22-0.41-0.33-0.61c-0.09-0.17-0.18-0.35-0.27-0.52
		c-0.1-0.21-0.2-0.42-0.3-0.63c-0.08-0.18-0.16-0.35-0.24-0.53c-0.09-0.21-0.18-0.43-0.27-0.65c-0.07-0.18-0.15-0.36-0.22-0.55
		c-0.08-0.22-0.16-0.44-0.24-0.67c-0.06-0.18-0.13-0.37-0.19-0.55c-0.07-0.23-0.14-0.46-0.21-0.69c-0.05-0.19-0.11-0.37-0.16-0.56
		c-0.06-0.24-0.12-0.48-0.17-0.72c-0.04-0.19-0.09-0.37-0.13-0.56c-0.05-0.25-0.09-0.5-0.14-0.75c-0.03-0.18-0.07-0.37-0.1-0.55
		c-0.04-0.26-0.07-0.53-0.1-0.79c-0.02-0.18-0.05-0.35-0.07-0.53c-0.03-0.3-0.05-0.59-0.07-0.89c-0.01-0.15-0.03-0.3-0.03-0.45
		c-0.02-0.45-0.04-0.9-0.04-1.36v-92.38c0-0.26-0.03-0.5-0.08-0.74c-0.08-0.4-0.24-0.76-0.44-1.1c-0.14-0.24-0.3-0.47-0.49-0.67
		c-0.03-0.03-0.05-0.07-0.08-0.1s-0.07-0.05-0.1-0.08c-0.24-0.22-0.5-0.4-0.79-0.56c-0.24-0.13-0.5-0.23-0.77-0.3
		c-0.07-0.02-0.14-0.05-0.22-0.07c-0.24-0.05-0.49-0.08-0.74-0.08H3.7c-0.26,0-0.5,0.03-0.74,0.08c-0.48,0.1-0.93,0.29-1.32,0.56
		c-0.59,0.4-1.06,0.96-1.34,1.63C0.1,339.86,0,340.35,0,340.86v92.38c0,8.86,2.08,17.23,5.79,24.65c1.23,2.47,2.65,4.84,4.23,7.09
		c0.79,1.12,1.62,2.21,2.49,3.27c1.3,1.59,2.69,3.1,4.16,4.54c0.98,0.96,1.99,1.88,3.04,2.76s2.13,1.73,3.24,2.53
		c3.89,2.82,8.16,5.14,12.72,6.88c3.84,1.47,7.88,2.55,12.07,3.15c2.51,0.36,5.08,0.55,7.7,0.55c1.74,0,3.47-0.08,5.17-0.25
		c0.85-0.08,1.69-0.18,2.53-0.3c4.19-0.6,8.23-1.68,12.07-3.15c1.95-0.75,3.85-1.6,5.69-2.55c3.68-1.91,7.12-4.21,10.26-6.86
		c2.09-1.77,4.06-3.68,5.87-5.74c0.45-0.51,0.9-1.03,1.33-1.56c0.43-0.53,0.86-1.07,1.27-1.61c0.41-0.55,0.82-1.1,1.21-1.66
		c1.18-1.68,2.27-3.44,3.27-5.25c0.66-1.21,1.28-2.45,1.85-3.71c3.15-6.94,4.9-14.65,4.9-22.78v-66.51v0h32.48h0
		c3.57,0,6.96,0.98,9.89,2.68c1.23,0.71,2.38,1.53,3.41,2.48c0.64,0.58,1.22,1.22,1.77,1.88c0.83,1,1.56,2.09,2.17,3.25
		c0.18,0.34,0.34,0.69,0.5,1.04c0.89,2.03,1.44,4.23,1.51,6.58c0.12,3.92-0.99,7.58-2.96,10.62c-3.29,5.07-9.01,8.42-15.5,8.42h0
		h-25.87v29.56h25.87h0c11.86,0,22.72-4.3,31.1-11.42c1.8-1.53,3.48-3.18,5.03-4.95c2.07-2.36,3.92-4.93,5.5-7.67
		c0.79-1.37,1.52-2.78,2.17-4.23c2.95-6.52,4.48-13.83,4.21-21.51c-0.12-3.25-0.56-6.42-1.31-9.46
		C190.43,372.46,189.98,370.97,189.46,369.51z"/>
	<path class="st0" d="M439.71,403.67c2.04,0,3.7-1.65,3.7-3.7v-22.17c0-2.04-1.65-3.7-3.7-3.7h-18.48v-33.26
		c0-2.04-1.65-3.7-3.7-3.7h-22.17c-2.04,0-3.69,1.65-3.69,3.7v33.26h-36.36c10.9,6.71,19.26,17.16,23.27,29.56h13.1v55.26
		c0,16.4,13.3,29.7,29.7,29.7h18.34c2.04,0,3.69-1.65,3.69-3.69v-22.17c0-2.04-1.65-3.69-3.69-3.69h-11.09
		c-4.08,0-7.39-3.31-7.39-7.39v-48.01H439.71z"/>
	<path class="st0" d="M327.01,374.11c-25.51,0-46.19,20.68-46.19,46.19v22.17c0,10.36,3.41,19.93,9.18,27.64
		c4.88,6.52,11.44,11.71,19.03,14.92c3.9,1.65,8.08,2.77,12.44,3.29c1.82,0.22,3.67,0.34,5.54,0.34c6.38,0,12.45-1.29,17.98-3.63
		c7.6-3.21,14.16-8.4,19.03-14.92c5.76-7.71,9.18-17.27,9.18-27.64V420.3C373.2,394.79,352.52,374.11,327.01,374.11z M343.64,442.47
		c0,3.44-1.05,6.64-2.84,9.3c-0.6,0.88-1.28,1.71-2.03,2.46s-1.58,1.43-2.46,2.03c-2.65,1.79-5.85,2.84-9.3,2.84
		c-9.18,0-16.63-7.44-16.63-16.63c0-4.26,0-17.91,0-22.17c0-9.18,7.44-16.63,16.63-16.63c3.44,0,6.64,1.05,9.3,2.84
		c0.88,0.6,1.71,1.28,2.46,2.03s1.43,1.58,2.03,2.46c1.79,2.65,2.84,5.85,2.84,9.3C343.64,424.57,343.64,438.21,343.64,442.47z"/>
</g>
<g>
	<path class="st0" d="M231.47,0l-4.23,11.63c64.1,2.01,115.44,54.6,115.44,119.19c0,65.86-53.39,119.26-119.26,119.26
		s-119.26-53.39-119.26-119.26c0-64.45,51.12-116.95,115.03-119.17l-4.22-11.62C146.29,4.37,91.92,61.26,91.92,130.82
		c0,72.39,58.88,131.07,131.51,131.07c72.63,0,131.51-58.68,131.51-131.07C354.94,61.12,300.36,4.14,231.47,0z"/>
	
		<linearGradient id="SVGID_00000127019764609182793740000001951135146201637527_" gradientUnits="userSpaceOnUse" x1="198.3858" y1="241.5777" x2="183.3917" y2="98.9176" gradientTransform="matrix(0.9945 0.1045 -0.1045 0.9945 51.3189 -98.3733)">
		<stop  offset="0" style="stop-color:#56C6DD"/>
		<stop  offset="1" style="stop-color:#029BD6"/>
	</linearGradient>
	<path style="fill:url(#SVGID_00000127019764609182793740000001951135146201637527_);" d="M112.41,119.08
		c-0.73,6.98-0.78,13.86-0.24,20.61l83.65,8.79l-14.27-13.6h-36.15c-3.38,0-6.09-2.91-5.75-6.36c0.29-3,2.99-5.21,6.01-5.21h40.34
		c0.11,0.04,0.2,0.08,0.31,0.13l17.41,16.59l17.3-16.27c1.47-1.39,3.77-1.39,5.25-0.02l17.54,16.3l17.25-16.6
		c0.11-0.04,0.21-0.08,0.31-0.13h40.1c3.38,0,6.09,2.91,5.75,6.36c-0.29,3-2.99,5.21-6.01,5.21h-35.36l-19.64,18.9l84.05,8.83
		c1.93-6.49,3.32-13.24,4.05-20.21c6.44-61.28-38.01-116.17-99.29-122.61C173.74,13.35,118.85,57.81,112.41,119.08z M237.61,30.36
		l4.57,17.33l-19.8-2.08l8.08-16C232.05,26.45,236.7,26.94,237.61,30.36z"/>
	
		<linearGradient id="SVGID_00000103229366330862440310000003506773655422445964_" gradientUnits="userSpaceOnUse" x1="200.4778" y1="241.3578" x2="185.4836" y2="98.6977" gradientTransform="matrix(0.9945 0.1045 -0.1045 0.9945 51.3189 -98.3733)">
		<stop  offset="0" style="stop-color:#56C6DD"/>
		<stop  offset="1" style="stop-color:#029BD6"/>
	</linearGradient>
	<polygon style="fill:url(#SVGID_00000103229366330862440310000003506773655422445964_);" points="209.99,149.98 240.95,153.23 
		223.54,137.05 	"/>
</g>
</svg>
