<?xml version="1.0" encoding="utf-8"?>
<!-- Generator: Adobe Illustrator 26.2.1, SVG Export Plug-In . SVG Version: 6.00 Build 0)  -->
<svg version="1.1" id="Layer_1" xmlns="http://www.w3.org/2000/svg" xmlns:xlink="http://www.w3.org/1999/xlink" x="0px" y="0px"
	 viewBox="0 0 764.04 261" style="enable-background:new 0 0 764.04 261;" xml:space="preserve">
<style type="text/css">
	.st0{fill:#2A2937;}
	.st1{fill:url(#SVGID_1_);}
	.st2{fill:url(#SVGID_00000095333839181375205640000013270109424344617347_);}
	.st3{fill:url(#SVGID_00000145781410384929853950000004215015667206691975_);}
</style>
<g>
	<path class="st0" d="M139.07,0l-4.21,11.59c63.88,2.01,115.05,54.42,115.05,118.78c0,65.64-53.21,118.85-118.85,118.85
		S12.21,196.01,12.21,130.37c0-64.23,50.95-116.55,114.64-118.77l-4.21-11.58C54.18,4.35,0,61.05,0,130.37
		C0,202.51,58.68,261,131.06,261c72.38,0,131.06-58.48,131.06-130.62C262.12,60.92,207.72,4.13,139.07,0z"/>
	
		<linearGradient id="SVGID_1_" gradientUnits="userSpaceOnUse" x1="106.4635" y1="250.6829" x2="91.5203" y2="108.5081" gradientTransform="matrix(0.9945 0.1045 -0.1045 0.9945 51.3189 -98.3733)">
		<stop  offset="0" style="stop-color:#56C6DD"/>
		<stop  offset="1" style="stop-color:#029BD6"/>
	</linearGradient>
	<path class="st1" d="M20.41,118.68c-0.73,6.95-0.77,13.82-0.24,20.54l83.37,8.76l-14.22-13.56H53.29c-3.37,0-6.07-2.9-5.73-6.34
		c0.29-2.99,2.98-5.19,5.99-5.19h40.2c0.11,0.04,0.2,0.08,0.31,0.12l17.35,16.53l17.24-16.21c1.47-1.38,3.76-1.39,5.24-0.02
		l17.48,16.24l17.19-16.55c0.11-0.04,0.2-0.08,0.31-0.13h39.96c3.37,0,6.07,2.9,5.73,6.34c-0.29,2.99-2.98,5.19-5.99,5.19h-35.24
		l-19.57,18.84l83.76,8.8c1.92-6.47,3.31-13.19,4.04-20.14c6.42-61.07-37.88-115.78-98.95-122.2
		C81.54,13.31,26.83,57.61,20.41,118.68z M145.19,30.26l4.56,17.27l-19.74-2.07l8.05-15.94C139.65,26.36,144.29,26.85,145.19,30.26z
		"/>
	
		<linearGradient id="SVGID_00000129910510913436100500000003061821076596887991_" gradientUnits="userSpaceOnUse" x1="108.5483" y1="250.4639" x2="93.6051" y2="108.2889" gradientTransform="matrix(0.9945 0.1045 -0.1045 0.9945 51.3189 -98.3733)">
		<stop  offset="0" style="stop-color:#56C6DD"/>
		<stop  offset="1" style="stop-color:#029BD6"/>
	</linearGradient>
	<polygon style="fill:url(#SVGID_00000129910510913436100500000003061821076596887991_);" points="117.67,149.47 148.52,152.71 
		131.16,136.58 	"/>
</g>
<g>
	<path class="st0" d="M505.38,148.29v61.21c0,2.04,1.65,3.7,3.7,3.7h22.17c2.04,0,3.7-1.65,3.7-3.7V102.34c0-2.04-1.65-3.7-3.7-3.7
		h-11.6c0.6,2.96,0.98,5.98,1.09,9.05C521.28,122.9,515.82,137.29,505.38,148.29z"/>
	<path class="st0" d="M596.07,183.63h-5.89c-3.98,0-7.21-3.23-7.21-7.21V65.39c0-2.04-1.65-3.7-3.7-3.7h-22.17
		c-2.04,0-3.7,1.65-3.7,3.7v118.2c0,16.35,13.25,29.6,29.6,29.6h36.32C608.44,206.48,600.08,196.02,596.07,183.63z"/>
	<path class="st0" d="M524.22,47.16c-12.07-2.28-23.66,5.77-25.73,17.88c-0.02,0.11-0.03,0.21-0.05,0.32
		c1.27,0.96,2.5,1.98,3.7,3.05c0.01-0.84,0.07-1.68,0.2-2.52c1.62-10.1,11.3-16.82,21.33-14.82c9.45,1.88,15.8,11.02,14.27,20.53
		c-1.62,10.1-11.3,16.82-21.33,14.82c-0.39-0.08-0.76-0.19-1.14-0.29c0.68,1.44,1.3,2.9,1.85,4.39c11.61,1.51,22.47-6.4,24.47-18.08
		C543.8,60.69,535.94,49.38,524.22,47.16z"/>
	
		<radialGradient id="SVGID_00000137850885752838902930000005133698146272447421_" cx="418.7437" cy="0.6088" r="16.0158" gradientTransform="matrix(0.9842 0.1771 -0.1771 0.9842 108.121 -6.0144)" gradientUnits="userSpaceOnUse">
		<stop  offset="0" style="stop-color:#56C6DD"/>
		<stop  offset="1" style="stop-color:#029BD6"/>
	</radialGradient>
	<path style="fill:url(#SVGID_00000137850885752838902930000005133698146272447421_);" d="M535.95,71.29
		c1.35-8.4-4.21-16.47-12.53-18.21l0.9,4.37l-4.17-0.75l2.36-3.77c-8.64-1.3-16.79,4.57-18.19,13.28c-0.23,1.41-0.24,2.8-0.1,4.16
		c4.02,3.96,7.36,8.42,9.96,13.24c0.9,0.36,1.84,0.65,2.82,0.85C525.92,86.23,534.51,80.26,535.95,71.29z"/>
	<path class="st0" d="M510.09,94.04c-5.47-15.4-18.95-27.11-34.76-30.95c-6.39-1.55-12.81-1.4-19.32-1.4c-8.07,0-38.92,0-46.27,0
		c-1.37,0-2.74-0.05-4.11,0c-2.11,0.07-3.63,1.64-3.71,3.73c-0.01,0.3,0,0.6,0,0.91c0,4.54,0,76.94,0,83.72
		c0,4.27,0.27,8.71-0.68,12.9c-1.69,7.43-6.54,14.06-13.26,17.69c-5.99,3.24-13.19,3.85-19.67,1.81
		c-10.92-3.43-18.1-13.76-18.11-25.09c0-4.01,0.12-88.92,0-91.96c-0.09-2.21-1.8-3.67-3.95-3.7c-1.18-0.02-19.13,0-20.72,0
		c-1.41,0-2.76,0.01-3.84,1.12c-1.2,1.24-1.05,2.79-1.05,4.35c0,5.06,0,78.39,0,84.88c0,5.2-0.06,10.35,0.86,15.5
		c2.8,15.67,12.53,29.62,26.19,37.77c14.17,8.45,31.6,10.15,47.12,4.55c15.12-5.46,27.41-17.5,33.11-32.54
		c2.38-6.28,3.55-12.94,3.56-19.65c0-1.38-0.08-60.92,0-65.97c0-0.27-0.05-0.36,0.1-0.47c0.13-0.09,0.66,0,0.81,0
		c0.51,0,25.14-0.04,31.54,0c7.31,0.05,14.31,4.16,17.52,10.81c3.31,6.87,1.75,15.28-3.59,20.67c-3.63,3.67-8.51,5.47-13.62,5.47
		c-3.19,0-25.37,0-25.37,0v29.55c0,0,20.04,0.12,26.72,0c14.96-0.26,29.19-7.68,37.99-19.77C512.73,125.43,515.3,108.7,510.09,94.04
		z"/>
	<path class="st0" d="M760.34,128.2c2.04,0,3.7-1.65,3.7-3.7v-22.17c0-2.04-1.65-3.7-3.7-3.7h-18.48V65.39c0-2.04-1.65-3.7-3.7-3.7
		H716c-2.04,0-3.69,1.65-3.69,3.7v33.26h-36.36c10.9,6.71,19.26,17.16,23.27,29.56h13.1v55.26c0,16.4,13.3,29.7,29.7,29.7h18.34
		c2.04,0,3.69-1.65,3.69-3.69V187.3c0-2.04-1.65-3.69-3.69-3.69h-11.09c-4.08,0-7.39-3.31-7.39-7.39V128.2H760.34z"/>
	<path class="st0" d="M647.64,98.64c-25.51,0-46.19,20.68-46.19,46.19V167c0,10.36,3.41,19.93,9.18,27.64
		c4.88,6.52,11.44,11.71,19.03,14.92c3.9,1.65,8.08,2.77,12.44,3.29c1.82,0.22,3.67,0.34,5.54,0.34c6.38,0,12.45-1.29,17.98-3.63
		c7.6-3.21,14.16-8.4,19.03-14.92c5.76-7.71,9.18-17.27,9.18-27.64v-22.17C693.83,119.32,673.15,98.64,647.64,98.64z M664.27,167
		c0,3.44-1.05,6.64-2.84,9.3c-0.6,0.88-1.28,1.71-2.03,2.46s-1.58,1.43-2.46,2.03c-2.65,1.79-5.85,2.84-9.3,2.84
		c-9.18,0-16.63-7.44-16.63-16.63c0-4.26,0-17.91,0-22.17c0-9.18,7.44-16.63,16.63-16.63c3.44,0,6.64,1.05,9.3,2.84
		c0.88,0.6,1.71,1.28,2.46,2.03s1.43,1.58,2.03,2.46c1.79,2.65,2.84,5.85,2.84,9.3C664.27,149.1,664.27,162.74,664.27,167z"/>
</g>
</svg>
