<?xml version="1.0" encoding="utf-8"?>
<!-- Generator: Adobe Illustrator 26.2.1, SVG Export Plug-In . SVG Version: 6.00 Build 0)  -->
<svg version="1.1" id="Layer_1" xmlns="http://www.w3.org/2000/svg" xmlns:xlink="http://www.w3.org/1999/xlink" x="0px" y="0px"
	 viewBox="0 0 769.73 261" style="enable-background:new 0 0 769.73 261;" xml:space="preserve">
<style type="text/css">
	.st0{fill:#FFFFFF;}
	.st1{fill:url(#Inner_dot_00000037688646134881593730000009871605262506652860_);}
	.st2{fill:url(#SVGID_1_);}
	.st3{fill:url(#SVGID_00000072249622693748218210000016279741425774911375_);}
</style>
<g id="Font">
	<path class="st0" d="M505.45,148.29v61.21c0,2.04,1.65,3.7,3.7,3.7h22.17c2.04,0,3.7-1.65,3.7-3.7V102.34c0-2.04-1.65-3.7-3.7-3.7
		h-11.6c0.6,2.96,0.98,5.98,1.09,9.05C521.34,122.9,515.89,137.29,505.45,148.29z"/>
	<path class="st0" d="M596.14,183.63h-5.89c-3.98,0-7.21-3.23-7.21-7.21V65.39c0-2.04-1.65-3.7-3.7-3.7h-22.17
		c-2.04,0-3.7,1.65-3.7,3.7v118.2c0,16.35,13.25,29.6,29.6,29.6h36.32C608.5,206.48,600.15,196.02,596.14,183.63z"/>
	<path class="st0" d="M524.28,47.16c-12.07-2.28-23.66,5.77-25.73,17.88c-0.02,0.11-0.03,0.21-0.05,0.32
		c1.27,0.96,2.5,1.98,3.7,3.05c0.01-0.84,0.07-1.68,0.2-2.52c1.62-10.1,11.3-16.82,21.33-14.82c9.45,1.88,15.8,11.02,14.27,20.53
		c-1.62,10.1-11.3,16.82-21.33,14.82c-0.39-0.08-0.76-0.19-1.14-0.29c0.68,1.44,1.3,2.9,1.85,4.39c11.61,1.51,22.47-6.4,24.47-18.08
		C543.87,60.69,536,49.38,524.28,47.16z"/>
	<path class="st0" d="M510.16,94.04c-5.34-15.05-18.35-26.62-33.74-30.69c-4.16-1.1-8.47-1.67-12.77-1.66h-57.97
		c-1.79,0-3.28,1.27-3.62,2.95c-0.05,0.24-0.08,0.49-0.08,0.74v91.49c0,11.48-7.54,22.39-18.66,25.71
		c-9.91,2.96-20.91-0.6-27.36-8.63c-3.68-4.57-5.71-10.34-5.71-16.2V65.39c0-2.65-2.31-3.7-4.57-3.7c-1.91,0-3.83,0-5.74,0
		c-4.7,0-9.4,0-14.1,0c-0.47,0-0.94-0.02-1.41,0c-2.02,0.08-3.73,1.59-3.73,3.7v92.38c0,11.07,3.36,22.01,9.61,31.15
		c6.42,9.4,15.73,16.7,26.39,20.71c10.97,4.12,23.07,4.68,34.36,1.48c10.94-3.1,20.79-9.53,28-18.33
		c8.06-9.83,12.5-22.31,12.5-35.01V91.25v0h32.48h0c3.57,0,6.96,0.98,9.89,2.68c4.41,2.56,7.74,6.82,8.91,11.82
		c1.11,4.77,0.15,9.93-2.52,14.03c-3.29,5.07-9.01,8.42-15.5,8.42h0h-25.87v29.56h25.87c11.13-0.01,22.04-3.92,30.61-11.02
		c9.57-7.92,15.82-19.46,17.15-31.83C513.32,107.89,512.53,100.71,510.16,94.04z"/>
	<path class="st0" d="M760.41,128.2c2.04,0,3.7-1.65,3.7-3.7v-22.17c0-2.04-1.65-3.7-3.7-3.7h-18.48V65.39c0-2.04-1.65-3.7-3.7-3.7
		h-22.17c-2.04,0-3.69,1.65-3.69,3.7v33.26h-36.36c10.9,6.71,19.26,17.16,23.27,29.56h13.1v55.26c0,16.4,13.3,29.7,29.7,29.7h18.34
		c2.04,0,3.69-1.65,3.69-3.69V187.3c0-2.04-1.65-3.69-3.69-3.69h-11.09c-4.08,0-7.39-3.31-7.39-7.39V128.2H760.41z"/>
	<path class="st0" d="M647.71,98.64c-25.51,0-46.19,20.68-46.19,46.19V167c0,10.36,3.41,19.93,9.18,27.64
		c4.88,6.52,11.44,11.71,19.03,14.92c3.9,1.65,8.08,2.77,12.44,3.29c1.82,0.22,3.67,0.34,5.54,0.34c6.38,0,12.45-1.29,17.98-3.63
		c7.6-3.21,14.16-8.4,19.03-14.92c5.76-7.71,9.18-17.27,9.18-27.64v-22.17C693.89,119.32,673.22,98.64,647.71,98.64z M664.33,167
		c0,3.44-1.05,6.64-2.84,9.3c-0.6,0.88-1.28,1.71-2.03,2.46s-1.58,1.43-2.46,2.03c-2.65,1.79-5.85,2.84-9.3,2.84
		c-9.18,0-16.63-7.44-16.63-16.63c0-4.26,0-17.91,0-22.17c0-9.18,7.44-16.63,16.63-16.63c3.44,0,6.64,1.05,9.3,2.84
		c0.88,0.6,1.71,1.28,2.46,2.03s1.43,1.58,2.03,2.46c1.79,2.65,2.84,5.85,2.84,9.3C664.33,149.1,664.33,162.74,664.33,167z"/>
</g>
<radialGradient id="Inner_dot_00000129173035461573454130000013527652771952223121_" cx="418.8073" cy="0.5973" r="16.0158" gradientTransform="matrix(0.9842 0.1771 -0.1771 0.9842 108.121 -6.0144)" gradientUnits="userSpaceOnUse">
	<stop  offset="0" style="stop-color:#56C6DD"/>
	<stop  offset="1" style="stop-color:#029BD6"/>
</radialGradient>
<path id="Inner_dot" style="fill:url(#Inner_dot_00000129173035461573454130000013527652771952223121_);" d="M536.02,71.29
	c1.35-8.4-4.21-16.47-12.53-18.21l0.9,4.37l-4.17-0.75l2.36-3.77c-8.64-1.3-16.79,4.57-18.19,13.28c-0.23,1.41-0.24,2.8-0.1,4.16
	c4.02,3.96,7.36,8.42,9.96,13.24c0.9,0.36,1.84,0.65,2.82,0.85C525.98,86.23,534.57,80.26,536.02,71.29z"/>
<g id="Inside_stroke">
	
		<linearGradient id="SVGID_1_" gradientUnits="userSpaceOnUse" x1="106.5277" y1="250.6762" x2="91.5845" y2="108.5013" gradientTransform="matrix(0.9945 0.1045 -0.1045 0.9945 51.3189 -98.3733)">
		<stop  offset="0" style="stop-color:#56C6DD"/>
		<stop  offset="1" style="stop-color:#029BD6"/>
	</linearGradient>
	<path class="st2" d="M20.48,118.68c-0.73,6.95-0.77,13.82-0.24,20.54l83.37,8.76l-14.22-13.56H53.35c-3.37,0-6.07-2.9-5.73-6.34
		c0.29-2.99,2.98-5.19,5.99-5.19h40.2c0.11,0.04,0.2,0.08,0.31,0.12l17.35,16.53l17.24-16.21c1.47-1.38,3.76-1.39,5.24-0.02
		l17.48,16.24l17.19-16.55c0.11-0.04,0.2-0.08,0.31-0.13h39.96c3.37,0,6.07,2.9,5.73,6.34c-0.29,2.99-2.98,5.19-5.99,5.19H173.4
		l-19.57,18.84l83.76,8.8c1.92-6.47,3.31-13.19,4.04-20.14c6.42-61.07-37.88-115.78-98.95-122.2C81.6,13.31,26.9,57.61,20.48,118.68
		z M145.25,30.26l4.56,17.27l-19.74-2.07l8.05-15.94C139.71,26.36,144.35,26.85,145.25,30.26z"/>
	
		<linearGradient id="SVGID_00000083808503934633605220000003745485888360017825_" gradientUnits="userSpaceOnUse" x1="108.6125" y1="250.4571" x2="93.6693" y2="108.2822" gradientTransform="matrix(0.9945 0.1045 -0.1045 0.9945 51.3189 -98.3733)">
		<stop  offset="0" style="stop-color:#56C6DD"/>
		<stop  offset="1" style="stop-color:#029BD6"/>
	</linearGradient>
	<polygon style="fill:url(#SVGID_00000083808503934633605220000003745485888360017825_);" points="117.73,149.47 148.58,152.71 
		131.23,136.58 	"/>
</g>
<path id="Circle_stroke_1_" class="st0" d="M139.07,0l-4.21,11.59c63.88,2.01,115.05,54.42,115.05,118.78
	c0,65.64-53.21,118.85-118.85,118.85S12.21,196.01,12.21,130.37c0-64.23,50.95-116.55,114.64-118.77l-4.21-11.58
	C54.18,4.35,0,61.05,0,130.37C0,202.51,58.68,261,131.06,261c72.38,0,131.06-58.48,131.06-130.62C262.12,60.92,207.72,4.13,139.07,0
	z"/>
</svg>
